<mxfile host="app.diagrams.net" modified="2024-01-12T17:35:26.864Z" agent="Mozilla/5.0 (Windows NT 10.0; Win64; x64) AppleWebKit/537.36 (KHTML, like Gecko) Chrome/120.0.0.0 Safari/537.36" etag="dk0IUDjMgA4Un6wXqx0s" version="22.1.18" type="device">
  <diagram id="R2lEEEUBdFMjLlhIrx00" name="Page-1">
    <mxGraphModel dx="1114" dy="2166" grid="0" gridSize="10" guides="1" tooltips="1" connect="1" arrows="1" fold="1" page="0" pageScale="1" pageWidth="850" pageHeight="1100" math="0" shadow="0" extFonts="Permanent Marker^https://fonts.googleapis.com/css?family=Permanent+Marker">
      <root>
        <mxCell id="0" />
        <mxCell id="1" parent="0" />
        <mxCell id="rhtYqysaW0aNV2xuzC4e-56" value="device_core" style="shape=table;startSize=18;container=1;collapsible=0;childLayout=tableLayout;fixedRows=1;rowLines=0;fontStyle=1;align=center;resizeLast=1;html=1;" parent="1" vertex="1">
          <mxGeometry x="731" y="-1232" width="230" height="205" as="geometry" />
        </mxCell>
        <mxCell id="rhtYqysaW0aNV2xuzC4e-57" value="" style="shape=tableRow;horizontal=0;startSize=0;swimlaneHead=0;swimlaneBody=0;fillColor=none;collapsible=0;dropTarget=0;points=[[0,0.5],[1,0.5]];portConstraint=eastwest;top=0;left=0;right=0;bottom=1;" parent="rhtYqysaW0aNV2xuzC4e-56" vertex="1">
          <mxGeometry y="18" width="230" height="20" as="geometry" />
        </mxCell>
        <mxCell id="rhtYqysaW0aNV2xuzC4e-58" value="PK" style="shape=partialRectangle;connectable=0;fillColor=none;top=0;left=0;bottom=0;right=0;fontStyle=1;overflow=hidden;whiteSpace=wrap;html=1;" parent="rhtYqysaW0aNV2xuzC4e-57" vertex="1">
          <mxGeometry width="30" height="20" as="geometry">
            <mxRectangle width="30" height="20" as="alternateBounds" />
          </mxGeometry>
        </mxCell>
        <mxCell id="rhtYqysaW0aNV2xuzC4e-59" value="ID&lt;span style=&quot;white-space: pre;&quot;&gt;&#x9;&lt;span style=&quot;white-space: pre;&quot;&gt;&#x9;&lt;/span&gt;&lt;span style=&quot;white-space: pre;&quot;&gt;&#x9;&lt;/span&gt;&lt;/span&gt;&lt;span style=&quot;white-space: pre;&quot;&gt;&#x9;&lt;/span&gt;int" style="shape=partialRectangle;connectable=0;fillColor=none;top=0;left=0;bottom=0;right=0;align=left;spacingLeft=6;fontStyle=5;overflow=hidden;whiteSpace=wrap;html=1;" parent="rhtYqysaW0aNV2xuzC4e-57" vertex="1">
          <mxGeometry x="30" width="200" height="20" as="geometry">
            <mxRectangle width="200" height="20" as="alternateBounds" />
          </mxGeometry>
        </mxCell>
        <mxCell id="BQ9yxjVHY6jUqZ1yo06z-14" value="" style="shape=tableRow;horizontal=0;startSize=0;swimlaneHead=0;swimlaneBody=0;fillColor=none;collapsible=0;dropTarget=0;points=[[0,0.5],[1,0.5]];portConstraint=eastwest;top=0;left=0;right=0;bottom=0;" parent="rhtYqysaW0aNV2xuzC4e-56" vertex="1">
          <mxGeometry y="38" width="230" height="18" as="geometry" />
        </mxCell>
        <mxCell id="BQ9yxjVHY6jUqZ1yo06z-15" value="" style="shape=partialRectangle;connectable=0;fillColor=none;top=0;left=0;bottom=0;right=0;editable=1;overflow=hidden;whiteSpace=wrap;html=1;" parent="BQ9yxjVHY6jUqZ1yo06z-14" vertex="1">
          <mxGeometry width="30" height="18" as="geometry">
            <mxRectangle width="30" height="18" as="alternateBounds" />
          </mxGeometry>
        </mxCell>
        <mxCell id="BQ9yxjVHY6jUqZ1yo06z-16" value="device_type&lt;span style=&quot;white-space: pre;&quot;&gt;&#x9;&lt;/span&gt;&lt;span style=&quot;white-space: pre;&quot;&gt;&#x9;&lt;/span&gt;varchar(50)" style="shape=partialRectangle;connectable=0;fillColor=none;top=0;left=0;bottom=0;right=0;align=left;spacingLeft=6;overflow=hidden;whiteSpace=wrap;html=1;" parent="BQ9yxjVHY6jUqZ1yo06z-14" vertex="1">
          <mxGeometry x="30" width="200" height="18" as="geometry">
            <mxRectangle width="200" height="18" as="alternateBounds" />
          </mxGeometry>
        </mxCell>
        <mxCell id="rhtYqysaW0aNV2xuzC4e-123" value="" style="shape=tableRow;horizontal=0;startSize=0;swimlaneHead=0;swimlaneBody=0;fillColor=none;collapsible=0;dropTarget=0;points=[[0,0.5],[1,0.5]];portConstraint=eastwest;top=0;left=0;right=0;bottom=0;" parent="rhtYqysaW0aNV2xuzC4e-56" vertex="1">
          <mxGeometry y="56" width="230" height="18" as="geometry" />
        </mxCell>
        <mxCell id="rhtYqysaW0aNV2xuzC4e-124" value="" style="shape=partialRectangle;connectable=0;fillColor=none;top=0;left=0;bottom=0;right=0;editable=1;overflow=hidden;whiteSpace=wrap;html=1;" parent="rhtYqysaW0aNV2xuzC4e-123" vertex="1">
          <mxGeometry width="30" height="18" as="geometry">
            <mxRectangle width="30" height="18" as="alternateBounds" />
          </mxGeometry>
        </mxCell>
        <mxCell id="rhtYqysaW0aNV2xuzC4e-125" value="device_name&lt;span style=&quot;white-space: pre;&quot;&gt;&#x9;&lt;/span&gt;&lt;span style=&quot;white-space: pre;&quot;&gt;&#x9;&lt;/span&gt;varchar(50)" style="shape=partialRectangle;connectable=0;fillColor=none;top=0;left=0;bottom=0;right=0;align=left;spacingLeft=6;overflow=hidden;whiteSpace=wrap;html=1;" parent="rhtYqysaW0aNV2xuzC4e-123" vertex="1">
          <mxGeometry x="30" width="200" height="18" as="geometry">
            <mxRectangle width="200" height="18" as="alternateBounds" />
          </mxGeometry>
        </mxCell>
        <mxCell id="rhtYqysaW0aNV2xuzC4e-63" value="" style="shape=tableRow;horizontal=0;startSize=0;swimlaneHead=0;swimlaneBody=0;fillColor=none;collapsible=0;dropTarget=0;points=[[0,0.5],[1,0.5]];portConstraint=eastwest;top=0;left=0;right=0;bottom=0;" parent="rhtYqysaW0aNV2xuzC4e-56" vertex="1">
          <mxGeometry y="74" width="230" height="18" as="geometry" />
        </mxCell>
        <mxCell id="rhtYqysaW0aNV2xuzC4e-64" value="" style="shape=partialRectangle;connectable=0;fillColor=none;top=0;left=0;bottom=0;right=0;editable=1;overflow=hidden;whiteSpace=wrap;html=1;" parent="rhtYqysaW0aNV2xuzC4e-63" vertex="1">
          <mxGeometry width="30" height="18" as="geometry">
            <mxRectangle width="30" height="18" as="alternateBounds" />
          </mxGeometry>
        </mxCell>
        <mxCell id="rhtYqysaW0aNV2xuzC4e-65" value="price&lt;span style=&quot;white-space: pre;&quot;&gt;&#x9;&lt;/span&gt;&lt;span style=&quot;white-space: pre;&quot;&gt;&#x9;&lt;/span&gt;&lt;span style=&quot;white-space: pre;&quot;&gt;&#x9;&lt;/span&gt;float" style="shape=partialRectangle;connectable=0;fillColor=none;top=0;left=0;bottom=0;right=0;align=left;spacingLeft=6;overflow=hidden;whiteSpace=wrap;html=1;" parent="rhtYqysaW0aNV2xuzC4e-63" vertex="1">
          <mxGeometry x="30" width="200" height="18" as="geometry">
            <mxRectangle width="200" height="18" as="alternateBounds" />
          </mxGeometry>
        </mxCell>
        <mxCell id="rhtYqysaW0aNV2xuzC4e-66" value="" style="shape=tableRow;horizontal=0;startSize=0;swimlaneHead=0;swimlaneBody=0;fillColor=none;collapsible=0;dropTarget=0;points=[[0,0.5],[1,0.5]];portConstraint=eastwest;top=0;left=0;right=0;bottom=0;" parent="rhtYqysaW0aNV2xuzC4e-56" vertex="1">
          <mxGeometry y="92" width="230" height="18" as="geometry" />
        </mxCell>
        <mxCell id="rhtYqysaW0aNV2xuzC4e-67" value="" style="shape=partialRectangle;connectable=0;fillColor=none;top=0;left=0;bottom=0;right=0;editable=1;overflow=hidden;whiteSpace=wrap;html=1;" parent="rhtYqysaW0aNV2xuzC4e-66" vertex="1">
          <mxGeometry width="30" height="18" as="geometry">
            <mxRectangle width="30" height="18" as="alternateBounds" />
          </mxGeometry>
        </mxCell>
        <mxCell id="rhtYqysaW0aNV2xuzC4e-68" value="description&lt;span style=&quot;white-space: pre;&quot;&gt;&#x9;&lt;/span&gt;&lt;span style=&quot;white-space: pre;&quot;&gt;&#x9;&lt;/span&gt;varchar(100)" style="shape=partialRectangle;connectable=0;fillColor=none;top=0;left=0;bottom=0;right=0;align=left;spacingLeft=6;overflow=hidden;whiteSpace=wrap;html=1;" parent="rhtYqysaW0aNV2xuzC4e-66" vertex="1">
          <mxGeometry x="30" width="200" height="18" as="geometry">
            <mxRectangle width="200" height="18" as="alternateBounds" />
          </mxGeometry>
        </mxCell>
        <mxCell id="rhtYqysaW0aNV2xuzC4e-101" value="" style="shape=tableRow;horizontal=0;startSize=0;swimlaneHead=0;swimlaneBody=0;fillColor=none;collapsible=0;dropTarget=0;points=[[0,0.5],[1,0.5]];portConstraint=eastwest;top=0;left=0;right=0;bottom=0;" parent="rhtYqysaW0aNV2xuzC4e-56" vertex="1">
          <mxGeometry y="110" width="230" height="18" as="geometry" />
        </mxCell>
        <mxCell id="rhtYqysaW0aNV2xuzC4e-102" value="" style="shape=partialRectangle;connectable=0;fillColor=none;top=0;left=0;bottom=0;right=0;editable=1;overflow=hidden;whiteSpace=wrap;html=1;" parent="rhtYqysaW0aNV2xuzC4e-101" vertex="1">
          <mxGeometry width="30" height="18" as="geometry">
            <mxRectangle width="30" height="18" as="alternateBounds" />
          </mxGeometry>
        </mxCell>
        <mxCell id="rhtYqysaW0aNV2xuzC4e-103" value="age&lt;span style=&quot;white-space: pre;&quot;&gt;&#x9;&lt;/span&gt;&lt;span style=&quot;white-space: pre;&quot;&gt;&#x9;&lt;/span&gt;&lt;span style=&quot;white-space: pre;&quot;&gt;&#x9;&lt;/span&gt;&lt;span style=&quot;white-space: pre;&quot;&gt;&#x9;&lt;/span&gt;int" style="shape=partialRectangle;connectable=0;fillColor=none;top=0;left=0;bottom=0;right=0;align=left;spacingLeft=6;overflow=hidden;whiteSpace=wrap;html=1;" parent="rhtYqysaW0aNV2xuzC4e-101" vertex="1">
          <mxGeometry x="30" width="200" height="18" as="geometry">
            <mxRectangle width="200" height="18" as="alternateBounds" />
          </mxGeometry>
        </mxCell>
        <mxCell id="rhtYqysaW0aNV2xuzC4e-69" value="" style="shape=tableRow;horizontal=0;startSize=0;swimlaneHead=0;swimlaneBody=0;fillColor=none;collapsible=0;dropTarget=0;points=[[0,0.5],[1,0.5]];portConstraint=eastwest;top=0;left=0;right=0;bottom=0;" parent="rhtYqysaW0aNV2xuzC4e-56" vertex="1">
          <mxGeometry y="128" width="230" height="18" as="geometry" />
        </mxCell>
        <mxCell id="rhtYqysaW0aNV2xuzC4e-70" value="" style="shape=partialRectangle;connectable=0;fillColor=none;top=0;left=0;bottom=0;right=0;editable=1;overflow=hidden;whiteSpace=wrap;html=1;" parent="rhtYqysaW0aNV2xuzC4e-69" vertex="1">
          <mxGeometry width="30" height="18" as="geometry">
            <mxRectangle width="30" height="18" as="alternateBounds" />
          </mxGeometry>
        </mxCell>
        <mxCell id="rhtYqysaW0aNV2xuzC4e-71" value="ready_to_sell&lt;span style=&quot;white-space: pre;&quot;&gt;&#x9;&lt;/span&gt;&lt;span style=&quot;white-space: pre;&quot;&gt;&#x9;&lt;/span&gt;bit" style="shape=partialRectangle;connectable=0;fillColor=none;top=0;left=0;bottom=0;right=0;align=left;spacingLeft=6;overflow=hidden;whiteSpace=wrap;html=1;" parent="rhtYqysaW0aNV2xuzC4e-69" vertex="1">
          <mxGeometry x="30" width="200" height="18" as="geometry">
            <mxRectangle width="200" height="18" as="alternateBounds" />
          </mxGeometry>
        </mxCell>
        <mxCell id="pV-Evp07mmvemtxAsMJC-1" value="" style="shape=tableRow;horizontal=0;startSize=0;swimlaneHead=0;swimlaneBody=0;fillColor=none;collapsible=0;dropTarget=0;points=[[0,0.5],[1,0.5]];portConstraint=eastwest;top=0;left=0;right=0;bottom=0;" parent="rhtYqysaW0aNV2xuzC4e-56" vertex="1">
          <mxGeometry y="146" width="230" height="18" as="geometry" />
        </mxCell>
        <mxCell id="pV-Evp07mmvemtxAsMJC-2" value="&lt;b&gt;FK&lt;/b&gt;" style="shape=partialRectangle;connectable=0;fillColor=none;top=0;left=0;bottom=0;right=0;editable=1;overflow=hidden;whiteSpace=wrap;html=1;" parent="pV-Evp07mmvemtxAsMJC-1" vertex="1">
          <mxGeometry width="30" height="18" as="geometry">
            <mxRectangle width="30" height="18" as="alternateBounds" />
          </mxGeometry>
        </mxCell>
        <mxCell id="pV-Evp07mmvemtxAsMJC-3" value="office_ID&lt;span style=&quot;white-space: pre;&quot;&gt;&#x9;&lt;/span&gt;&lt;span style=&quot;white-space: pre;&quot;&gt;&#x9;&lt;span style=&quot;white-space: pre;&quot;&gt;&#x9;&lt;/span&gt;&lt;/span&gt;int" style="shape=partialRectangle;connectable=0;fillColor=none;top=0;left=0;bottom=0;right=0;align=left;spacingLeft=6;overflow=hidden;whiteSpace=wrap;html=1;" parent="pV-Evp07mmvemtxAsMJC-1" vertex="1">
          <mxGeometry x="30" width="200" height="18" as="geometry">
            <mxRectangle width="200" height="18" as="alternateBounds" />
          </mxGeometry>
        </mxCell>
        <mxCell id="h3zn51addXBDFONtfmP2-4" value="" style="shape=tableRow;horizontal=0;startSize=0;swimlaneHead=0;swimlaneBody=0;fillColor=none;collapsible=0;dropTarget=0;points=[[0,0.5],[1,0.5]];portConstraint=eastwest;top=0;left=0;right=0;bottom=0;" vertex="1" parent="rhtYqysaW0aNV2xuzC4e-56">
          <mxGeometry y="164" width="230" height="18" as="geometry" />
        </mxCell>
        <mxCell id="h3zn51addXBDFONtfmP2-5" value="" style="shape=partialRectangle;connectable=0;fillColor=none;top=0;left=0;bottom=0;right=0;editable=1;overflow=hidden;whiteSpace=wrap;html=1;" vertex="1" parent="h3zn51addXBDFONtfmP2-4">
          <mxGeometry width="30" height="18" as="geometry">
            <mxRectangle width="30" height="18" as="alternateBounds" />
          </mxGeometry>
        </mxCell>
        <mxCell id="h3zn51addXBDFONtfmP2-6" value="lottery_date&lt;span style=&quot;white-space: pre;&quot;&gt;&#x9;&lt;span style=&quot;white-space: pre;&quot;&gt;&#x9;&lt;/span&gt;date&lt;/span&gt;" style="shape=partialRectangle;connectable=0;fillColor=none;top=0;left=0;bottom=0;right=0;align=left;spacingLeft=6;overflow=hidden;whiteSpace=wrap;html=1;" vertex="1" parent="h3zn51addXBDFONtfmP2-4">
          <mxGeometry x="30" width="200" height="18" as="geometry">
            <mxRectangle width="200" height="18" as="alternateBounds" />
          </mxGeometry>
        </mxCell>
        <mxCell id="rhtYqysaW0aNV2xuzC4e-142" value="storage" style="shape=table;startSize=20;container=1;collapsible=0;childLayout=tableLayout;fixedRows=1;rowLines=0;fontStyle=1;align=center;resizeLast=1;html=1;" parent="1" vertex="1">
          <mxGeometry x="729" y="-813" width="230" height="76" as="geometry" />
        </mxCell>
        <mxCell id="rhtYqysaW0aNV2xuzC4e-143" value="" style="shape=tableRow;horizontal=0;startSize=0;swimlaneHead=0;swimlaneBody=0;fillColor=none;collapsible=0;dropTarget=0;points=[[0,0.5],[1,0.5]];portConstraint=eastwest;top=0;left=0;right=0;bottom=1;" parent="rhtYqysaW0aNV2xuzC4e-142" vertex="1">
          <mxGeometry y="20" width="230" height="20" as="geometry" />
        </mxCell>
        <mxCell id="rhtYqysaW0aNV2xuzC4e-144" value="PK" style="shape=partialRectangle;connectable=0;fillColor=none;top=0;left=0;bottom=0;right=0;fontStyle=1;overflow=hidden;whiteSpace=wrap;html=1;" parent="rhtYqysaW0aNV2xuzC4e-143" vertex="1">
          <mxGeometry width="30" height="20" as="geometry">
            <mxRectangle width="30" height="20" as="alternateBounds" />
          </mxGeometry>
        </mxCell>
        <mxCell id="rhtYqysaW0aNV2xuzC4e-145" value="ID&lt;span style=&quot;white-space: pre;&quot;&gt;&#x9;&lt;/span&gt;&lt;span style=&quot;white-space: pre;&quot;&gt;&#x9;&lt;/span&gt;&lt;span style=&quot;white-space: pre;&quot;&gt;&#x9;&lt;span style=&quot;white-space: pre;&quot;&gt;&#x9;&lt;/span&gt;&lt;/span&gt;int" style="shape=partialRectangle;connectable=0;fillColor=none;top=0;left=0;bottom=0;right=0;align=left;spacingLeft=2;fontStyle=5;overflow=hidden;whiteSpace=wrap;html=1;" parent="rhtYqysaW0aNV2xuzC4e-143" vertex="1">
          <mxGeometry x="30" width="200" height="20" as="geometry">
            <mxRectangle width="200" height="20" as="alternateBounds" />
          </mxGeometry>
        </mxCell>
        <mxCell id="rhtYqysaW0aNV2xuzC4e-146" value="" style="shape=tableRow;horizontal=0;startSize=0;swimlaneHead=0;swimlaneBody=0;fillColor=none;collapsible=0;dropTarget=0;points=[[0,0.5],[1,0.5]];portConstraint=eastwest;top=0;left=0;right=0;bottom=0;" parent="rhtYqysaW0aNV2xuzC4e-142" vertex="1">
          <mxGeometry y="40" width="230" height="18" as="geometry" />
        </mxCell>
        <mxCell id="rhtYqysaW0aNV2xuzC4e-147" value="" style="shape=partialRectangle;connectable=0;fillColor=none;top=0;left=0;bottom=0;right=0;editable=1;overflow=hidden;whiteSpace=wrap;html=1;" parent="rhtYqysaW0aNV2xuzC4e-146" vertex="1">
          <mxGeometry width="30" height="18" as="geometry">
            <mxRectangle width="30" height="18" as="alternateBounds" />
          </mxGeometry>
        </mxCell>
        <mxCell id="rhtYqysaW0aNV2xuzC4e-148" value="name&lt;span style=&quot;white-space: pre;&quot;&gt;&#x9;&lt;span style=&quot;white-space: pre;&quot;&gt;&#x9;&lt;span style=&quot;white-space: pre;&quot;&gt;&#x9;&lt;/span&gt;&lt;/span&gt;&lt;/span&gt;varchar(50)" style="shape=partialRectangle;connectable=0;fillColor=none;top=0;left=0;bottom=0;right=0;align=left;spacingLeft=2;overflow=hidden;whiteSpace=wrap;html=1;" parent="rhtYqysaW0aNV2xuzC4e-146" vertex="1">
          <mxGeometry x="30" width="200" height="18" as="geometry">
            <mxRectangle width="200" height="18" as="alternateBounds" />
          </mxGeometry>
        </mxCell>
        <mxCell id="rhtYqysaW0aNV2xuzC4e-149" value="" style="shape=tableRow;horizontal=0;startSize=0;swimlaneHead=0;swimlaneBody=0;fillColor=none;collapsible=0;dropTarget=0;points=[[0,0.5],[1,0.5]];portConstraint=eastwest;top=0;left=0;right=0;bottom=0;" parent="rhtYqysaW0aNV2xuzC4e-142" vertex="1">
          <mxGeometry y="58" width="230" height="18" as="geometry" />
        </mxCell>
        <mxCell id="rhtYqysaW0aNV2xuzC4e-150" value="" style="shape=partialRectangle;connectable=0;fillColor=none;top=0;left=0;bottom=0;right=0;editable=1;overflow=hidden;whiteSpace=wrap;html=1;" parent="rhtYqysaW0aNV2xuzC4e-149" vertex="1">
          <mxGeometry width="30" height="18" as="geometry">
            <mxRectangle width="30" height="18" as="alternateBounds" />
          </mxGeometry>
        </mxCell>
        <mxCell id="rhtYqysaW0aNV2xuzC4e-151" value="price&lt;span style=&quot;white-space: pre;&quot;&gt;&#x9;&lt;/span&gt;&lt;span style=&quot;white-space: pre;&quot;&gt;&#x9;&lt;span style=&quot;white-space: pre;&quot;&gt;&#x9;&lt;/span&gt;&lt;/span&gt;float" style="shape=partialRectangle;connectable=0;fillColor=none;top=0;left=0;bottom=0;right=0;align=left;spacingLeft=2;overflow=hidden;whiteSpace=wrap;html=1;" parent="rhtYqysaW0aNV2xuzC4e-149" vertex="1">
          <mxGeometry x="30" width="200" height="18" as="geometry">
            <mxRectangle width="200" height="18" as="alternateBounds" />
          </mxGeometry>
        </mxCell>
        <mxCell id="rhtYqysaW0aNV2xuzC4e-152" value="ram" style="shape=table;startSize=20;container=1;collapsible=0;childLayout=tableLayout;fixedRows=1;rowLines=0;fontStyle=1;align=center;resizeLast=1;html=1;" parent="1" vertex="1">
          <mxGeometry x="1023" y="-811" width="239" height="82" as="geometry" />
        </mxCell>
        <mxCell id="rhtYqysaW0aNV2xuzC4e-153" value="" style="shape=tableRow;horizontal=0;startSize=0;swimlaneHead=0;swimlaneBody=0;fillColor=none;collapsible=0;dropTarget=0;points=[[0,0.5],[1,0.5]];portConstraint=eastwest;top=0;left=0;right=0;bottom=1;" parent="rhtYqysaW0aNV2xuzC4e-152" vertex="1">
          <mxGeometry y="20" width="239" height="20" as="geometry" />
        </mxCell>
        <mxCell id="rhtYqysaW0aNV2xuzC4e-154" value="PK" style="shape=partialRectangle;connectable=0;fillColor=none;top=0;left=0;bottom=0;right=0;fontStyle=1;overflow=hidden;whiteSpace=wrap;html=1;" parent="rhtYqysaW0aNV2xuzC4e-153" vertex="1">
          <mxGeometry width="30" height="20" as="geometry">
            <mxRectangle width="30" height="20" as="alternateBounds" />
          </mxGeometry>
        </mxCell>
        <mxCell id="rhtYqysaW0aNV2xuzC4e-155" value="ID&lt;span style=&quot;white-space: pre;&quot;&gt;&#x9;&lt;/span&gt;&lt;span style=&quot;white-space: pre;&quot;&gt;&#x9;&lt;/span&gt;&lt;span style=&quot;white-space: pre;&quot;&gt;&#x9;&lt;span style=&quot;white-space: pre;&quot;&gt;&#x9;&lt;/span&gt;&lt;/span&gt;int" style="shape=partialRectangle;connectable=0;fillColor=none;top=0;left=0;bottom=0;right=0;align=left;spacingLeft=2;fontStyle=5;overflow=hidden;whiteSpace=wrap;html=1;" parent="rhtYqysaW0aNV2xuzC4e-153" vertex="1">
          <mxGeometry x="30" width="209" height="20" as="geometry">
            <mxRectangle width="209" height="20" as="alternateBounds" />
          </mxGeometry>
        </mxCell>
        <mxCell id="rhtYqysaW0aNV2xuzC4e-156" value="" style="shape=tableRow;horizontal=0;startSize=0;swimlaneHead=0;swimlaneBody=0;fillColor=none;collapsible=0;dropTarget=0;points=[[0,0.5],[1,0.5]];portConstraint=eastwest;top=0;left=0;right=0;bottom=0;" parent="rhtYqysaW0aNV2xuzC4e-152" vertex="1">
          <mxGeometry y="40" width="239" height="18" as="geometry" />
        </mxCell>
        <mxCell id="rhtYqysaW0aNV2xuzC4e-157" value="" style="shape=partialRectangle;connectable=0;fillColor=none;top=0;left=0;bottom=0;right=0;editable=1;overflow=hidden;whiteSpace=wrap;html=1;" parent="rhtYqysaW0aNV2xuzC4e-156" vertex="1">
          <mxGeometry width="30" height="18" as="geometry">
            <mxRectangle width="30" height="18" as="alternateBounds" />
          </mxGeometry>
        </mxCell>
        <mxCell id="rhtYqysaW0aNV2xuzC4e-158" value="name&lt;span style=&quot;white-space: pre;&quot;&gt;&#x9;&lt;span style=&quot;white-space: pre;&quot;&gt;&#x9;&lt;span style=&quot;white-space: pre;&quot;&gt;&#x9;&lt;/span&gt;&lt;/span&gt;&lt;/span&gt;varchar(50)" style="shape=partialRectangle;connectable=0;fillColor=none;top=0;left=0;bottom=0;right=0;align=left;spacingLeft=2;overflow=hidden;whiteSpace=wrap;html=1;" parent="rhtYqysaW0aNV2xuzC4e-156" vertex="1">
          <mxGeometry x="30" width="209" height="18" as="geometry">
            <mxRectangle width="209" height="18" as="alternateBounds" />
          </mxGeometry>
        </mxCell>
        <mxCell id="rhtYqysaW0aNV2xuzC4e-159" value="" style="shape=tableRow;horizontal=0;startSize=0;swimlaneHead=0;swimlaneBody=0;fillColor=none;collapsible=0;dropTarget=0;points=[[0,0.5],[1,0.5]];portConstraint=eastwest;top=0;left=0;right=0;bottom=0;" parent="rhtYqysaW0aNV2xuzC4e-152" vertex="1">
          <mxGeometry y="58" width="239" height="18" as="geometry" />
        </mxCell>
        <mxCell id="rhtYqysaW0aNV2xuzC4e-160" value="" style="shape=partialRectangle;connectable=0;fillColor=none;top=0;left=0;bottom=0;right=0;editable=1;overflow=hidden;whiteSpace=wrap;html=1;" parent="rhtYqysaW0aNV2xuzC4e-159" vertex="1">
          <mxGeometry width="30" height="18" as="geometry">
            <mxRectangle width="30" height="18" as="alternateBounds" />
          </mxGeometry>
        </mxCell>
        <mxCell id="rhtYqysaW0aNV2xuzC4e-161" value="price&lt;span style=&quot;white-space: pre;&quot;&gt;&#x9;&lt;span style=&quot;white-space: pre;&quot;&gt;&#x9;&lt;span style=&quot;white-space: pre;&quot;&gt;&#x9;&lt;/span&gt;&lt;/span&gt;&lt;/span&gt;float" style="shape=partialRectangle;connectable=0;fillColor=none;top=0;left=0;bottom=0;right=0;align=left;spacingLeft=2;overflow=hidden;whiteSpace=wrap;html=1;" parent="rhtYqysaW0aNV2xuzC4e-159" vertex="1">
          <mxGeometry x="30" width="209" height="18" as="geometry">
            <mxRectangle width="209" height="18" as="alternateBounds" />
          </mxGeometry>
        </mxCell>
        <mxCell id="EUteFAguwHEmxr4Av9a_-1" value="" style="shape=partialRectangle;connectable=0;fillColor=none;top=0;left=0;bottom=0;right=0;align=left;spacingLeft=6;fontStyle=5;overflow=hidden;whiteSpace=wrap;html=1;" parent="1" vertex="1">
          <mxGeometry x="320" y="140" width="90" height="30" as="geometry">
            <mxRectangle width="210" height="30" as="alternateBounds" />
          </mxGeometry>
        </mxCell>
        <mxCell id="rhtYqysaW0aNV2xuzC4e-24" value="role" style="shape=table;startSize=19;container=1;collapsible=0;childLayout=tableLayout;fixedRows=1;rowLines=0;fontStyle=1;align=center;resizeLast=1;html=1;" parent="1" vertex="1">
          <mxGeometry x="481.5" y="-795" width="203" height="58" as="geometry" />
        </mxCell>
        <mxCell id="rhtYqysaW0aNV2xuzC4e-25" value="" style="shape=tableRow;horizontal=0;startSize=0;swimlaneHead=0;swimlaneBody=0;fillColor=none;collapsible=0;dropTarget=0;points=[[0,0.5],[1,0.5]];portConstraint=eastwest;top=0;left=0;right=0;bottom=1;" parent="rhtYqysaW0aNV2xuzC4e-24" vertex="1">
          <mxGeometry y="19" width="203" height="20" as="geometry" />
        </mxCell>
        <mxCell id="rhtYqysaW0aNV2xuzC4e-26" value="PK" style="shape=partialRectangle;connectable=0;fillColor=none;top=0;left=0;bottom=0;right=0;fontStyle=1;overflow=hidden;whiteSpace=wrap;html=1;" parent="rhtYqysaW0aNV2xuzC4e-25" vertex="1">
          <mxGeometry width="30" height="20" as="geometry">
            <mxRectangle width="30" height="20" as="alternateBounds" />
          </mxGeometry>
        </mxCell>
        <mxCell id="rhtYqysaW0aNV2xuzC4e-27" value="ID&lt;span style=&quot;white-space: pre;&quot;&gt;&#x9;&lt;/span&gt;&lt;span style=&quot;white-space: pre;&quot;&gt;&#x9;&lt;/span&gt;&lt;span style=&quot;white-space: pre;&quot;&gt;&#x9;&lt;/span&gt;int" style="shape=partialRectangle;connectable=0;fillColor=none;top=0;left=0;bottom=0;right=0;align=left;spacingLeft=6;fontStyle=5;overflow=hidden;whiteSpace=wrap;html=1;" parent="rhtYqysaW0aNV2xuzC4e-25" vertex="1">
          <mxGeometry x="30" width="173" height="20" as="geometry">
            <mxRectangle width="173" height="20" as="alternateBounds" />
          </mxGeometry>
        </mxCell>
        <mxCell id="rhtYqysaW0aNV2xuzC4e-28" value="" style="shape=tableRow;horizontal=0;startSize=0;swimlaneHead=0;swimlaneBody=0;fillColor=none;collapsible=0;dropTarget=0;points=[[0,0.5],[1,0.5]];portConstraint=eastwest;top=0;left=0;right=0;bottom=0;" parent="rhtYqysaW0aNV2xuzC4e-24" vertex="1">
          <mxGeometry y="39" width="203" height="18" as="geometry" />
        </mxCell>
        <mxCell id="rhtYqysaW0aNV2xuzC4e-29" value="" style="shape=partialRectangle;connectable=0;fillColor=none;top=0;left=0;bottom=0;right=0;editable=1;overflow=hidden;whiteSpace=wrap;html=1;" parent="rhtYqysaW0aNV2xuzC4e-28" vertex="1">
          <mxGeometry width="30" height="18" as="geometry">
            <mxRectangle width="30" height="18" as="alternateBounds" />
          </mxGeometry>
        </mxCell>
        <mxCell id="rhtYqysaW0aNV2xuzC4e-30" value="role_name&lt;span style=&quot;white-space: pre;&quot;&gt;&#x9;&lt;/span&gt;varchar(50)" style="shape=partialRectangle;connectable=0;fillColor=none;top=0;left=0;bottom=0;right=0;align=left;spacingLeft=6;overflow=hidden;whiteSpace=wrap;html=1;" parent="rhtYqysaW0aNV2xuzC4e-28" vertex="1">
          <mxGeometry x="30" width="173" height="18" as="geometry">
            <mxRectangle width="173" height="18" as="alternateBounds" />
          </mxGeometry>
        </mxCell>
        <mxCell id="pV-Evp07mmvemtxAsMJC-11" value="office" style="shape=table;startSize=21;container=1;collapsible=0;childLayout=tableLayout;fixedRows=1;rowLines=0;fontStyle=1;align=center;resizeLast=1;html=1;" parent="1" vertex="1">
          <mxGeometry x="729" y="-1000" width="232" height="59" as="geometry" />
        </mxCell>
        <mxCell id="pV-Evp07mmvemtxAsMJC-12" value="" style="shape=tableRow;horizontal=0;startSize=0;swimlaneHead=0;swimlaneBody=0;fillColor=none;collapsible=0;dropTarget=0;points=[[0,0.5],[1,0.5]];portConstraint=eastwest;top=0;left=0;right=0;bottom=1;" parent="pV-Evp07mmvemtxAsMJC-11" vertex="1">
          <mxGeometry y="21" width="232" height="20" as="geometry" />
        </mxCell>
        <mxCell id="pV-Evp07mmvemtxAsMJC-13" value="PK" style="shape=partialRectangle;connectable=0;fillColor=none;top=0;left=0;bottom=0;right=0;fontStyle=1;overflow=hidden;whiteSpace=wrap;html=1;" parent="pV-Evp07mmvemtxAsMJC-12" vertex="1">
          <mxGeometry width="30" height="20" as="geometry">
            <mxRectangle width="30" height="20" as="alternateBounds" />
          </mxGeometry>
        </mxCell>
        <mxCell id="pV-Evp07mmvemtxAsMJC-14" value="ID&lt;span style=&quot;white-space: pre;&quot;&gt;&#x9;&lt;/span&gt;&lt;span style=&quot;white-space: pre;&quot;&gt;&#x9;&lt;/span&gt;&lt;span style=&quot;white-space: pre;&quot;&gt;&#x9;&lt;/span&gt;int" style="shape=partialRectangle;connectable=0;fillColor=none;top=0;left=0;bottom=0;right=0;align=left;spacingLeft=6;fontStyle=5;overflow=hidden;whiteSpace=wrap;html=1;" parent="pV-Evp07mmvemtxAsMJC-12" vertex="1">
          <mxGeometry x="30" width="202" height="20" as="geometry">
            <mxRectangle width="202" height="20" as="alternateBounds" />
          </mxGeometry>
        </mxCell>
        <mxCell id="pV-Evp07mmvemtxAsMJC-15" value="" style="shape=tableRow;horizontal=0;startSize=0;swimlaneHead=0;swimlaneBody=0;fillColor=none;collapsible=0;dropTarget=0;points=[[0,0.5],[1,0.5]];portConstraint=eastwest;top=0;left=0;right=0;bottom=0;fontSize=18;" parent="pV-Evp07mmvemtxAsMJC-11" vertex="1">
          <mxGeometry y="41" width="232" height="18" as="geometry" />
        </mxCell>
        <mxCell id="pV-Evp07mmvemtxAsMJC-16" value="" style="shape=partialRectangle;connectable=0;fillColor=none;top=0;left=0;bottom=0;right=0;editable=1;overflow=hidden;whiteSpace=wrap;html=1;" parent="pV-Evp07mmvemtxAsMJC-15" vertex="1">
          <mxGeometry width="30" height="18" as="geometry">
            <mxRectangle width="30" height="18" as="alternateBounds" />
          </mxGeometry>
        </mxCell>
        <mxCell id="pV-Evp07mmvemtxAsMJC-17" value="address&lt;span style=&quot;white-space: pre;&quot;&gt;&#x9;&lt;/span&gt;&lt;span style=&quot;white-space: pre;&quot;&gt;&#x9;&lt;/span&gt;varchar(50)" style="shape=partialRectangle;connectable=0;fillColor=none;top=0;left=0;bottom=0;right=0;align=left;spacingLeft=6;overflow=hidden;whiteSpace=wrap;html=1;" parent="pV-Evp07mmvemtxAsMJC-15" vertex="1">
          <mxGeometry x="30" width="202" height="18" as="geometry">
            <mxRectangle width="202" height="18" as="alternateBounds" />
          </mxGeometry>
        </mxCell>
        <mxCell id="iL8kvciCAE8nfBlT4CIH-17" value="other_device" style="shape=table;startSize=23;container=1;collapsible=0;childLayout=tableLayout;fixedRows=1;rowLines=0;fontStyle=1;align=center;resizeLast=1;html=1;" parent="1" vertex="1">
          <mxGeometry x="1022" y="-1200" width="240" height="65" as="geometry" />
        </mxCell>
        <mxCell id="iL8kvciCAE8nfBlT4CIH-18" value="" style="shape=tableRow;horizontal=0;startSize=0;swimlaneHead=0;swimlaneBody=0;fillColor=none;collapsible=0;dropTarget=0;points=[[0,0.5],[1,0.5]];portConstraint=eastwest;top=0;left=0;right=0;bottom=1;" parent="iL8kvciCAE8nfBlT4CIH-17" vertex="1">
          <mxGeometry y="23" width="240" height="20" as="geometry" />
        </mxCell>
        <mxCell id="iL8kvciCAE8nfBlT4CIH-19" value="PK" style="shape=partialRectangle;connectable=0;fillColor=none;top=0;left=0;bottom=0;right=0;fontStyle=1;overflow=hidden;whiteSpace=wrap;html=1;" parent="iL8kvciCAE8nfBlT4CIH-18" vertex="1">
          <mxGeometry width="30" height="20" as="geometry">
            <mxRectangle width="30" height="20" as="alternateBounds" />
          </mxGeometry>
        </mxCell>
        <mxCell id="iL8kvciCAE8nfBlT4CIH-20" value="ID&lt;span style=&quot;white-space: pre;&quot;&gt;&#x9;&lt;span style=&quot;white-space: pre;&quot;&gt;&#x9;&lt;/span&gt;&lt;span style=&quot;white-space: pre;&quot;&gt;&#x9;&lt;/span&gt;&lt;/span&gt;&lt;span style=&quot;white-space: pre;&quot;&gt;&#x9;&lt;/span&gt;int" style="shape=partialRectangle;connectable=0;fillColor=none;top=0;left=0;bottom=0;right=0;align=left;spacingLeft=6;fontStyle=5;overflow=hidden;whiteSpace=wrap;html=1;" parent="iL8kvciCAE8nfBlT4CIH-18" vertex="1">
          <mxGeometry x="30" width="210" height="20" as="geometry">
            <mxRectangle width="210" height="20" as="alternateBounds" />
          </mxGeometry>
        </mxCell>
        <mxCell id="iL8kvciCAE8nfBlT4CIH-45" value="" style="shape=tableRow;horizontal=0;startSize=0;swimlaneHead=0;swimlaneBody=0;fillColor=none;collapsible=0;dropTarget=0;points=[[0,0.5],[1,0.5]];portConstraint=eastwest;top=0;left=0;right=0;bottom=0;" parent="iL8kvciCAE8nfBlT4CIH-17" vertex="1">
          <mxGeometry y="43" width="240" height="20" as="geometry" />
        </mxCell>
        <mxCell id="iL8kvciCAE8nfBlT4CIH-46" value="" style="shape=partialRectangle;connectable=0;fillColor=none;top=0;left=0;bottom=0;right=0;editable=1;overflow=hidden;whiteSpace=wrap;html=1;" parent="iL8kvciCAE8nfBlT4CIH-45" vertex="1">
          <mxGeometry width="30" height="20" as="geometry">
            <mxRectangle width="30" height="20" as="alternateBounds" />
          </mxGeometry>
        </mxCell>
        <mxCell id="iL8kvciCAE8nfBlT4CIH-47" value="additional_info&lt;span style=&quot;white-space: pre;&quot;&gt;&#x9;&lt;span style=&quot;white-space: pre;&quot;&gt;&#x9;&lt;/span&gt;v&lt;/span&gt;archar(100)" style="shape=partialRectangle;connectable=0;fillColor=none;top=0;left=0;bottom=0;right=0;align=left;spacingLeft=6;overflow=hidden;whiteSpace=wrap;html=1;" parent="iL8kvciCAE8nfBlT4CIH-45" vertex="1">
          <mxGeometry x="30" width="210" height="20" as="geometry">
            <mxRectangle width="210" height="20" as="alternateBounds" />
          </mxGeometry>
        </mxCell>
        <mxCell id="iL8kvciCAE8nfBlT4CIH-51" value="tablet" style="shape=table;startSize=18;container=1;collapsible=0;childLayout=tableLayout;fixedRows=1;rowLines=0;fontStyle=1;align=center;resizeLast=1;html=1;aspect=fixed;" parent="1" vertex="1">
          <mxGeometry x="1022" y="-1115" width="240" height="97" as="geometry" />
        </mxCell>
        <mxCell id="iL8kvciCAE8nfBlT4CIH-52" value="" style="shape=tableRow;horizontal=0;startSize=0;swimlaneHead=0;swimlaneBody=0;fillColor=none;collapsible=0;dropTarget=0;points=[[0,0.5],[1,0.5]];portConstraint=eastwest;top=0;left=0;right=0;bottom=1;" parent="iL8kvciCAE8nfBlT4CIH-51" vertex="1">
          <mxGeometry y="18" width="240" height="20" as="geometry" />
        </mxCell>
        <mxCell id="iL8kvciCAE8nfBlT4CIH-53" value="PK" style="shape=partialRectangle;connectable=0;fillColor=none;top=0;left=0;bottom=0;right=0;fontStyle=1;overflow=hidden;whiteSpace=wrap;html=1;" parent="iL8kvciCAE8nfBlT4CIH-52" vertex="1">
          <mxGeometry width="30" height="20" as="geometry">
            <mxRectangle width="30" height="20" as="alternateBounds" />
          </mxGeometry>
        </mxCell>
        <mxCell id="iL8kvciCAE8nfBlT4CIH-54" value="ID&lt;span style=&quot;white-space: pre;&quot;&gt;&#x9;&lt;span style=&quot;white-space: pre;&quot;&gt;&#x9;&lt;/span&gt;&lt;span style=&quot;white-space: pre;&quot;&gt;&#x9;&lt;/span&gt;&lt;/span&gt;&lt;span style=&quot;white-space: pre;&quot;&gt;&#x9;&lt;/span&gt;int" style="shape=partialRectangle;connectable=0;fillColor=none;top=0;left=0;bottom=0;right=0;align=left;spacingLeft=6;fontStyle=5;overflow=hidden;whiteSpace=wrap;html=1;" parent="iL8kvciCAE8nfBlT4CIH-52" vertex="1">
          <mxGeometry x="30" width="210" height="20" as="geometry">
            <mxRectangle width="210" height="20" as="alternateBounds" />
          </mxGeometry>
        </mxCell>
        <mxCell id="iL8kvciCAE8nfBlT4CIH-79" value="" style="shape=tableRow;horizontal=0;startSize=0;swimlaneHead=0;swimlaneBody=0;fillColor=none;collapsible=0;dropTarget=0;points=[[0,0.5],[1,0.5]];portConstraint=eastwest;top=0;left=0;right=0;bottom=0;" parent="iL8kvciCAE8nfBlT4CIH-51" vertex="1">
          <mxGeometry y="38" width="240" height="18" as="geometry" />
        </mxCell>
        <mxCell id="iL8kvciCAE8nfBlT4CIH-80" value="" style="shape=partialRectangle;connectable=0;fillColor=none;top=0;left=0;bottom=0;right=0;editable=1;overflow=hidden;whiteSpace=wrap;html=1;" parent="iL8kvciCAE8nfBlT4CIH-79" vertex="1">
          <mxGeometry width="30" height="18" as="geometry">
            <mxRectangle width="30" height="18" as="alternateBounds" />
          </mxGeometry>
        </mxCell>
        <mxCell id="iL8kvciCAE8nfBlT4CIH-81" value="screen_size&#x9;&lt;span style=&quot;border-color: var(--border-color);&quot;&gt;&lt;span style=&quot;white-space: pre;&quot;&gt;&amp;nbsp;&amp;nbsp;&amp;nbsp;&lt;span style=&quot;white-space: pre;&quot;&gt;&#x9;&lt;/span&gt;&lt;span style=&quot;white-space: pre;&quot;&gt;&#x9;&lt;/span&gt;&amp;nbsp;&lt;/span&gt;&lt;/span&gt;varchar(50)&lt;span style=&quot;border-color: var(--border-color);&quot;&gt;&lt;span style=&quot;white-space: pre;&quot;&gt;&amp;nbsp;&amp;nbsp;&amp;nbsp;&amp;nbsp;&lt;/span&gt;&lt;/span&gt;&lt;span style=&quot;border-color: var(--border-color);&quot;&gt;&lt;span style=&quot;white-space: pre;&quot;&gt;&amp;nbsp;&amp;nbsp;&amp;nbsp;&amp;nbsp;&lt;/span&gt;&lt;/span&gt;" style="shape=partialRectangle;connectable=0;fillColor=none;top=0;left=0;bottom=0;right=0;align=left;spacingLeft=6;overflow=hidden;whiteSpace=wrap;html=1;" parent="iL8kvciCAE8nfBlT4CIH-79" vertex="1">
          <mxGeometry x="30" width="210" height="18" as="geometry">
            <mxRectangle width="210" height="18" as="alternateBounds" />
          </mxGeometry>
        </mxCell>
        <mxCell id="iL8kvciCAE8nfBlT4CIH-82" value="" style="shape=tableRow;horizontal=0;startSize=0;swimlaneHead=0;swimlaneBody=0;fillColor=none;collapsible=0;dropTarget=0;points=[[0,0.5],[1,0.5]];portConstraint=eastwest;top=0;left=0;right=0;bottom=0;" parent="iL8kvciCAE8nfBlT4CIH-51" vertex="1">
          <mxGeometry y="56" width="240" height="18" as="geometry" />
        </mxCell>
        <mxCell id="iL8kvciCAE8nfBlT4CIH-83" value="" style="shape=partialRectangle;connectable=0;fillColor=none;top=0;left=0;bottom=0;right=0;editable=1;overflow=hidden;whiteSpace=wrap;html=1;" parent="iL8kvciCAE8nfBlT4CIH-82" vertex="1">
          <mxGeometry width="30" height="18" as="geometry">
            <mxRectangle width="30" height="18" as="alternateBounds" />
          </mxGeometry>
        </mxCell>
        <mxCell id="iL8kvciCAE8nfBlT4CIH-84" value="operating_system&lt;span style=&quot;white-space: pre;&quot;&gt;&#x9;&lt;/span&gt;&amp;nbsp;varchar(50)" style="shape=partialRectangle;connectable=0;fillColor=none;top=0;left=0;bottom=0;right=0;align=left;spacingLeft=6;overflow=hidden;whiteSpace=wrap;html=1;" parent="iL8kvciCAE8nfBlT4CIH-82" vertex="1">
          <mxGeometry x="30" width="210" height="18" as="geometry">
            <mxRectangle width="210" height="18" as="alternateBounds" />
          </mxGeometry>
        </mxCell>
        <mxCell id="iL8kvciCAE8nfBlT4CIH-85" value="" style="shape=tableRow;horizontal=0;startSize=0;swimlaneHead=0;swimlaneBody=0;fillColor=none;collapsible=0;dropTarget=0;points=[[0,0.5],[1,0.5]];portConstraint=eastwest;top=0;left=0;right=0;bottom=0;" parent="iL8kvciCAE8nfBlT4CIH-51" vertex="1">
          <mxGeometry y="74" width="240" height="20" as="geometry" />
        </mxCell>
        <mxCell id="iL8kvciCAE8nfBlT4CIH-86" value="" style="shape=partialRectangle;connectable=0;fillColor=none;top=0;left=0;bottom=0;right=0;editable=1;overflow=hidden;whiteSpace=wrap;html=1;" parent="iL8kvciCAE8nfBlT4CIH-85" vertex="1">
          <mxGeometry width="30" height="20" as="geometry">
            <mxRectangle width="30" height="20" as="alternateBounds" />
          </mxGeometry>
        </mxCell>
        <mxCell id="iL8kvciCAE8nfBlT4CIH-87" value="battery_life&lt;span style=&quot;white-space: pre;&quot;&gt;&#x9;&lt;/span&gt;&lt;span style=&quot;white-space: pre;&quot;&gt;&#x9;&lt;/span&gt;&amp;nbsp;varchar(50)" style="shape=partialRectangle;connectable=0;fillColor=none;top=0;left=0;bottom=0;right=0;align=left;spacingLeft=6;overflow=hidden;whiteSpace=wrap;html=1;" parent="iL8kvciCAE8nfBlT4CIH-85" vertex="1">
          <mxGeometry x="30" width="210" height="20" as="geometry">
            <mxRectangle width="210" height="20" as="alternateBounds" />
          </mxGeometry>
        </mxCell>
        <mxCell id="iL8kvciCAE8nfBlT4CIH-91" value="computer" style="shape=table;startSize=30;container=1;collapsible=0;childLayout=tableLayout;fixedRows=1;rowLines=0;fontStyle=1;align=center;resizeLast=1;html=1;" parent="1" vertex="1">
          <mxGeometry x="1022" y="-1006" width="240" height="178" as="geometry" />
        </mxCell>
        <mxCell id="iL8kvciCAE8nfBlT4CIH-92" value="" style="shape=tableRow;horizontal=0;startSize=0;swimlaneHead=0;swimlaneBody=0;fillColor=none;collapsible=0;dropTarget=0;points=[[0,0.5],[1,0.5]];portConstraint=eastwest;top=0;left=0;right=0;bottom=1;" parent="iL8kvciCAE8nfBlT4CIH-91" vertex="1">
          <mxGeometry y="30" width="240" height="20" as="geometry" />
        </mxCell>
        <mxCell id="iL8kvciCAE8nfBlT4CIH-93" value="PK" style="shape=partialRectangle;connectable=0;fillColor=none;top=0;left=0;bottom=0;right=0;fontStyle=1;overflow=hidden;whiteSpace=wrap;html=1;" parent="iL8kvciCAE8nfBlT4CIH-92" vertex="1">
          <mxGeometry width="30" height="20" as="geometry">
            <mxRectangle width="30" height="20" as="alternateBounds" />
          </mxGeometry>
        </mxCell>
        <mxCell id="iL8kvciCAE8nfBlT4CIH-94" value="ID&lt;span style=&quot;white-space: pre;&quot;&gt;&#x9;&lt;span style=&quot;white-space: pre;&quot;&gt;&#x9;&lt;/span&gt;&lt;span style=&quot;white-space: pre;&quot;&gt;&#x9;&lt;/span&gt;&lt;/span&gt;&lt;span style=&quot;white-space: pre;&quot;&gt;&#x9;&lt;/span&gt;int" style="shape=partialRectangle;connectable=0;fillColor=none;top=0;left=0;bottom=0;right=0;align=left;spacingLeft=6;fontStyle=5;overflow=hidden;whiteSpace=wrap;html=1;" parent="iL8kvciCAE8nfBlT4CIH-92" vertex="1">
          <mxGeometry x="30" width="210" height="20" as="geometry">
            <mxRectangle width="210" height="20" as="alternateBounds" />
          </mxGeometry>
        </mxCell>
        <mxCell id="iL8kvciCAE8nfBlT4CIH-95" value="" style="shape=tableRow;horizontal=0;startSize=0;swimlaneHead=0;swimlaneBody=0;fillColor=none;collapsible=0;dropTarget=0;points=[[0,0.5],[1,0.5]];portConstraint=eastwest;top=0;left=0;right=0;bottom=0;" parent="iL8kvciCAE8nfBlT4CIH-91" vertex="1">
          <mxGeometry y="50" width="240" height="20" as="geometry" />
        </mxCell>
        <mxCell id="iL8kvciCAE8nfBlT4CIH-96" value="" style="shape=partialRectangle;connectable=0;fillColor=none;top=0;left=0;bottom=0;right=0;editable=1;overflow=hidden;whiteSpace=wrap;html=1;" parent="iL8kvciCAE8nfBlT4CIH-95" vertex="1">
          <mxGeometry width="30" height="20" as="geometry">
            <mxRectangle width="30" height="20" as="alternateBounds" />
          </mxGeometry>
        </mxCell>
        <mxCell id="iL8kvciCAE8nfBlT4CIH-97" value="serial_number &lt;span style=&quot;white-space: pre;&quot;&gt;&#x9;&lt;/span&gt;varchar(50)" style="shape=partialRectangle;connectable=0;fillColor=none;top=0;left=0;bottom=0;right=0;align=left;spacingLeft=6;overflow=hidden;whiteSpace=wrap;html=1;" parent="iL8kvciCAE8nfBlT4CIH-95" vertex="1">
          <mxGeometry x="30" width="210" height="20" as="geometry">
            <mxRectangle width="210" height="20" as="alternateBounds" />
          </mxGeometry>
        </mxCell>
        <mxCell id="iL8kvciCAE8nfBlT4CIH-131" value="" style="shape=tableRow;horizontal=0;startSize=0;swimlaneHead=0;swimlaneBody=0;fillColor=none;collapsible=0;dropTarget=0;points=[[0,0.5],[1,0.5]];portConstraint=eastwest;top=0;left=0;right=0;bottom=0;" parent="iL8kvciCAE8nfBlT4CIH-91" vertex="1">
          <mxGeometry y="70" width="240" height="18" as="geometry" />
        </mxCell>
        <mxCell id="iL8kvciCAE8nfBlT4CIH-132" value="" style="shape=partialRectangle;connectable=0;fillColor=none;top=0;left=0;bottom=0;right=0;editable=1;overflow=hidden;whiteSpace=wrap;html=1;" parent="iL8kvciCAE8nfBlT4CIH-131" vertex="1">
          <mxGeometry width="30" height="18" as="geometry">
            <mxRectangle width="30" height="18" as="alternateBounds" />
          </mxGeometry>
        </mxCell>
        <mxCell id="iL8kvciCAE8nfBlT4CIH-133" value="model&lt;span style=&quot;white-space: pre;&quot;&gt;&#x9;&lt;/span&gt;&lt;span style=&quot;white-space: pre;&quot;&gt;&#x9;&lt;/span&gt;&lt;span style=&quot;white-space: pre;&quot;&gt;&#x9;&lt;/span&gt;varchar(50)" style="shape=partialRectangle;connectable=0;fillColor=none;top=0;left=0;bottom=0;right=0;align=left;spacingLeft=6;overflow=hidden;whiteSpace=wrap;html=1;" parent="iL8kvciCAE8nfBlT4CIH-131" vertex="1">
          <mxGeometry x="30" width="210" height="18" as="geometry">
            <mxRectangle width="210" height="18" as="alternateBounds" />
          </mxGeometry>
        </mxCell>
        <mxCell id="iL8kvciCAE8nfBlT4CIH-134" value="" style="shape=tableRow;horizontal=0;startSize=0;swimlaneHead=0;swimlaneBody=0;fillColor=none;collapsible=0;dropTarget=0;points=[[0,0.5],[1,0.5]];portConstraint=eastwest;top=0;left=0;right=0;bottom=0;" parent="iL8kvciCAE8nfBlT4CIH-91" vertex="1">
          <mxGeometry y="88" width="240" height="18" as="geometry" />
        </mxCell>
        <mxCell id="iL8kvciCAE8nfBlT4CIH-135" value="" style="shape=partialRectangle;connectable=0;fillColor=none;top=0;left=0;bottom=0;right=0;editable=1;overflow=hidden;whiteSpace=wrap;html=1;" parent="iL8kvciCAE8nfBlT4CIH-134" vertex="1">
          <mxGeometry width="30" height="18" as="geometry">
            <mxRectangle width="30" height="18" as="alternateBounds" />
          </mxGeometry>
        </mxCell>
        <mxCell id="iL8kvciCAE8nfBlT4CIH-136" value="operating_system&lt;span style=&quot;white-space: pre;&quot;&gt;&#x9;&lt;/span&gt;varchar(50)" style="shape=partialRectangle;connectable=0;fillColor=none;top=0;left=0;bottom=0;right=0;align=left;spacingLeft=6;overflow=hidden;whiteSpace=wrap;html=1;" parent="iL8kvciCAE8nfBlT4CIH-134" vertex="1">
          <mxGeometry x="30" width="210" height="18" as="geometry">
            <mxRectangle width="210" height="18" as="alternateBounds" />
          </mxGeometry>
        </mxCell>
        <mxCell id="iL8kvciCAE8nfBlT4CIH-137" value="" style="shape=tableRow;horizontal=0;startSize=0;swimlaneHead=0;swimlaneBody=0;fillColor=none;collapsible=0;dropTarget=0;points=[[0,0.5],[1,0.5]];portConstraint=eastwest;top=0;left=0;right=0;bottom=0;" parent="iL8kvciCAE8nfBlT4CIH-91" vertex="1">
          <mxGeometry y="106" width="240" height="18" as="geometry" />
        </mxCell>
        <mxCell id="iL8kvciCAE8nfBlT4CIH-138" value="" style="shape=partialRectangle;connectable=0;fillColor=none;top=0;left=0;bottom=0;right=0;editable=1;overflow=hidden;whiteSpace=wrap;html=1;" parent="iL8kvciCAE8nfBlT4CIH-137" vertex="1">
          <mxGeometry width="30" height="18" as="geometry">
            <mxRectangle width="30" height="18" as="alternateBounds" />
          </mxGeometry>
        </mxCell>
        <mxCell id="iL8kvciCAE8nfBlT4CIH-139" value="battery_life&lt;span style=&quot;white-space: pre;&quot;&gt;&#x9;&lt;/span&gt;&lt;span style=&quot;white-space: pre;&quot;&gt;&#x9;&lt;/span&gt;int" style="shape=partialRectangle;connectable=0;fillColor=none;top=0;left=0;bottom=0;right=0;align=left;spacingLeft=6;overflow=hidden;whiteSpace=wrap;html=1;" parent="iL8kvciCAE8nfBlT4CIH-137" vertex="1">
          <mxGeometry x="30" width="210" height="18" as="geometry">
            <mxRectangle width="210" height="18" as="alternateBounds" />
          </mxGeometry>
        </mxCell>
        <mxCell id="iL8kvciCAE8nfBlT4CIH-122" value="" style="shape=tableRow;horizontal=0;startSize=0;swimlaneHead=0;swimlaneBody=0;fillColor=none;collapsible=0;dropTarget=0;points=[[0,0.5],[1,0.5]];portConstraint=eastwest;top=0;left=0;right=0;bottom=0;" parent="iL8kvciCAE8nfBlT4CIH-91" vertex="1">
          <mxGeometry y="124" width="240" height="18" as="geometry" />
        </mxCell>
        <mxCell id="iL8kvciCAE8nfBlT4CIH-123" value="&lt;b&gt;FK&lt;/b&gt;" style="shape=partialRectangle;connectable=0;fillColor=none;top=0;left=0;bottom=0;right=0;editable=1;overflow=hidden;whiteSpace=wrap;html=1;" parent="iL8kvciCAE8nfBlT4CIH-122" vertex="1">
          <mxGeometry width="30" height="18" as="geometry">
            <mxRectangle width="30" height="18" as="alternateBounds" />
          </mxGeometry>
        </mxCell>
        <mxCell id="iL8kvciCAE8nfBlT4CIH-124" value="cpu_id&lt;span style=&quot;white-space: pre;&quot;&gt;&#x9;&lt;/span&gt;&lt;span style=&quot;white-space: pre;&quot;&gt;&#x9;&lt;/span&gt;&lt;span style=&quot;white-space: pre;&quot;&gt;&#x9;&lt;/span&gt;int" style="shape=partialRectangle;connectable=0;fillColor=none;top=0;left=0;bottom=0;right=0;align=left;spacingLeft=6;overflow=hidden;whiteSpace=wrap;html=1;" parent="iL8kvciCAE8nfBlT4CIH-122" vertex="1">
          <mxGeometry x="30" width="210" height="18" as="geometry">
            <mxRectangle width="210" height="18" as="alternateBounds" />
          </mxGeometry>
        </mxCell>
        <mxCell id="iL8kvciCAE8nfBlT4CIH-125" value="" style="shape=tableRow;horizontal=0;startSize=0;swimlaneHead=0;swimlaneBody=0;fillColor=none;collapsible=0;dropTarget=0;points=[[0,0.5],[1,0.5]];portConstraint=eastwest;top=0;left=0;right=0;bottom=0;" parent="iL8kvciCAE8nfBlT4CIH-91" vertex="1">
          <mxGeometry y="142" width="240" height="18" as="geometry" />
        </mxCell>
        <mxCell id="iL8kvciCAE8nfBlT4CIH-126" value="&lt;b&gt;FK&lt;/b&gt;" style="shape=partialRectangle;connectable=0;fillColor=none;top=0;left=0;bottom=0;right=0;editable=1;overflow=hidden;whiteSpace=wrap;html=1;" parent="iL8kvciCAE8nfBlT4CIH-125" vertex="1">
          <mxGeometry width="30" height="18" as="geometry">
            <mxRectangle width="30" height="18" as="alternateBounds" />
          </mxGeometry>
        </mxCell>
        <mxCell id="iL8kvciCAE8nfBlT4CIH-127" value="storage_id&lt;span style=&quot;white-space: pre;&quot;&gt;&#x9;&lt;/span&gt;&lt;span style=&quot;white-space: pre;&quot;&gt;&#x9;&lt;/span&gt;int" style="shape=partialRectangle;connectable=0;fillColor=none;top=0;left=0;bottom=0;right=0;align=left;spacingLeft=6;overflow=hidden;whiteSpace=wrap;html=1;" parent="iL8kvciCAE8nfBlT4CIH-125" vertex="1">
          <mxGeometry x="30" width="210" height="18" as="geometry">
            <mxRectangle width="210" height="18" as="alternateBounds" />
          </mxGeometry>
        </mxCell>
        <mxCell id="iL8kvciCAE8nfBlT4CIH-128" value="" style="shape=tableRow;horizontal=0;startSize=0;swimlaneHead=0;swimlaneBody=0;fillColor=none;collapsible=0;dropTarget=0;points=[[0,0.5],[1,0.5]];portConstraint=eastwest;top=0;left=0;right=0;bottom=0;" parent="iL8kvciCAE8nfBlT4CIH-91" vertex="1">
          <mxGeometry y="160" width="240" height="18" as="geometry" />
        </mxCell>
        <mxCell id="iL8kvciCAE8nfBlT4CIH-129" value="&lt;b&gt;FK&lt;/b&gt;" style="shape=partialRectangle;connectable=0;fillColor=none;top=0;left=0;bottom=0;right=0;editable=1;overflow=hidden;whiteSpace=wrap;html=1;" parent="iL8kvciCAE8nfBlT4CIH-128" vertex="1">
          <mxGeometry width="30" height="18" as="geometry">
            <mxRectangle width="30" height="18" as="alternateBounds" />
          </mxGeometry>
        </mxCell>
        <mxCell id="iL8kvciCAE8nfBlT4CIH-130" value="ram_id&lt;span style=&quot;white-space: pre;&quot;&gt;&#x9;&lt;/span&gt;&lt;span style=&quot;white-space: pre;&quot;&gt;&#x9;&lt;/span&gt;&lt;span style=&quot;white-space: pre;&quot;&gt;&#x9;&lt;/span&gt;int" style="shape=partialRectangle;connectable=0;fillColor=none;top=0;left=0;bottom=0;right=0;align=left;spacingLeft=6;overflow=hidden;whiteSpace=wrap;html=1;" parent="iL8kvciCAE8nfBlT4CIH-128" vertex="1">
          <mxGeometry x="30" width="210" height="18" as="geometry">
            <mxRectangle width="210" height="18" as="alternateBounds" />
          </mxGeometry>
        </mxCell>
        <mxCell id="rhtYqysaW0aNV2xuzC4e-129" value="cpu" style="shape=table;startSize=20;container=1;collapsible=0;childLayout=tableLayout;fixedRows=1;rowLines=0;fontStyle=1;align=center;resizeLast=1;html=1;" parent="1" vertex="1">
          <mxGeometry x="729" y="-922" width="232" height="76" as="geometry" />
        </mxCell>
        <mxCell id="rhtYqysaW0aNV2xuzC4e-130" value="" style="shape=tableRow;horizontal=0;startSize=0;swimlaneHead=0;swimlaneBody=0;fillColor=none;collapsible=0;dropTarget=0;points=[[0,0.5],[1,0.5]];portConstraint=eastwest;top=0;left=0;right=0;bottom=1;" parent="rhtYqysaW0aNV2xuzC4e-129" vertex="1">
          <mxGeometry y="20" width="232" height="20" as="geometry" />
        </mxCell>
        <mxCell id="rhtYqysaW0aNV2xuzC4e-131" value="PK" style="shape=partialRectangle;connectable=0;fillColor=none;top=0;left=0;bottom=0;right=0;fontStyle=1;overflow=hidden;whiteSpace=wrap;html=1;" parent="rhtYqysaW0aNV2xuzC4e-130" vertex="1">
          <mxGeometry width="30" height="20" as="geometry">
            <mxRectangle width="30" height="20" as="alternateBounds" />
          </mxGeometry>
        </mxCell>
        <mxCell id="rhtYqysaW0aNV2xuzC4e-132" value="ID&lt;span style=&quot;white-space: pre;&quot;&gt;&#x9;&lt;/span&gt;&lt;span style=&quot;white-space: pre;&quot;&gt;&#x9;&lt;/span&gt;&lt;span style=&quot;white-space: pre;&quot;&gt;&#x9;&lt;span style=&quot;white-space: pre;&quot;&gt;&#x9;&lt;/span&gt;&lt;/span&gt;int" style="shape=partialRectangle;connectable=0;fillColor=none;top=0;left=0;bottom=0;right=0;align=left;spacingLeft=2;fontStyle=5;overflow=hidden;whiteSpace=wrap;html=1;" parent="rhtYqysaW0aNV2xuzC4e-130" vertex="1">
          <mxGeometry x="30" width="202" height="20" as="geometry">
            <mxRectangle width="202" height="20" as="alternateBounds" />
          </mxGeometry>
        </mxCell>
        <mxCell id="rhtYqysaW0aNV2xuzC4e-133" value="" style="shape=tableRow;horizontal=0;startSize=0;swimlaneHead=0;swimlaneBody=0;fillColor=none;collapsible=0;dropTarget=0;points=[[0,0.5],[1,0.5]];portConstraint=eastwest;top=0;left=0;right=0;bottom=0;" parent="rhtYqysaW0aNV2xuzC4e-129" vertex="1">
          <mxGeometry y="40" width="232" height="18" as="geometry" />
        </mxCell>
        <mxCell id="rhtYqysaW0aNV2xuzC4e-134" value="" style="shape=partialRectangle;connectable=0;fillColor=none;top=0;left=0;bottom=0;right=0;editable=1;overflow=hidden;whiteSpace=wrap;html=1;" parent="rhtYqysaW0aNV2xuzC4e-133" vertex="1">
          <mxGeometry width="30" height="18" as="geometry">
            <mxRectangle width="30" height="18" as="alternateBounds" />
          </mxGeometry>
        </mxCell>
        <mxCell id="rhtYqysaW0aNV2xuzC4e-135" value="name&lt;span style=&quot;white-space: pre;&quot;&gt;&lt;span style=&quot;white-space: pre;&quot;&gt;&#x9;&lt;span style=&quot;white-space: pre;&quot;&gt;&#x9;&lt;/span&gt;&lt;span style=&quot;white-space: pre;&quot;&gt;&#x9;&lt;/span&gt;&lt;/span&gt;&lt;/span&gt;varchar(50)" style="shape=partialRectangle;connectable=0;fillColor=none;top=0;left=0;bottom=0;right=0;align=left;spacingLeft=2;overflow=hidden;whiteSpace=wrap;html=1;" parent="rhtYqysaW0aNV2xuzC4e-133" vertex="1">
          <mxGeometry x="30" width="202" height="18" as="geometry">
            <mxRectangle width="202" height="18" as="alternateBounds" />
          </mxGeometry>
        </mxCell>
        <mxCell id="rhtYqysaW0aNV2xuzC4e-136" value="" style="shape=tableRow;horizontal=0;startSize=0;swimlaneHead=0;swimlaneBody=0;fillColor=none;collapsible=0;dropTarget=0;points=[[0,0.5],[1,0.5]];portConstraint=eastwest;top=0;left=0;right=0;bottom=0;" parent="rhtYqysaW0aNV2xuzC4e-129" vertex="1">
          <mxGeometry y="58" width="232" height="18" as="geometry" />
        </mxCell>
        <mxCell id="rhtYqysaW0aNV2xuzC4e-137" value="" style="shape=partialRectangle;connectable=0;fillColor=none;top=0;left=0;bottom=0;right=0;editable=1;overflow=hidden;whiteSpace=wrap;html=1;" parent="rhtYqysaW0aNV2xuzC4e-136" vertex="1">
          <mxGeometry width="30" height="18" as="geometry">
            <mxRectangle width="30" height="18" as="alternateBounds" />
          </mxGeometry>
        </mxCell>
        <mxCell id="rhtYqysaW0aNV2xuzC4e-138" value="price&lt;span style=&quot;white-space: pre;&quot;&gt;&#x9;&lt;span style=&quot;white-space: pre;&quot;&gt;&#x9;&lt;/span&gt;&lt;span style=&quot;white-space: pre;&quot;&gt;&#x9;&lt;/span&gt;&lt;/span&gt;float" style="shape=partialRectangle;connectable=0;fillColor=none;top=0;left=0;bottom=0;right=0;align=left;spacingLeft=2;overflow=hidden;whiteSpace=wrap;html=1;" parent="rhtYqysaW0aNV2xuzC4e-136" vertex="1">
          <mxGeometry x="30" width="202" height="18" as="geometry">
            <mxRectangle width="202" height="18" as="alternateBounds" />
          </mxGeometry>
        </mxCell>
        <mxCell id="rhtYqysaW0aNV2xuzC4e-2" value="user" style="shape=table;startSize=20;container=1;collapsible=0;childLayout=tableLayout;fixedRows=1;rowLines=0;fontStyle=1;align=center;resizeLast=1;html=1;" parent="1" vertex="1">
          <mxGeometry x="483" y="-961" width="200" height="148" as="geometry" />
        </mxCell>
        <mxCell id="rhtYqysaW0aNV2xuzC4e-3" value="" style="shape=tableRow;horizontal=0;startSize=0;swimlaneHead=0;swimlaneBody=0;fillColor=none;collapsible=0;dropTarget=0;points=[[0,0.5],[1,0.5]];portConstraint=eastwest;top=0;left=0;right=0;bottom=1;" parent="rhtYqysaW0aNV2xuzC4e-2" vertex="1">
          <mxGeometry y="20" width="200" height="20" as="geometry" />
        </mxCell>
        <mxCell id="rhtYqysaW0aNV2xuzC4e-4" value="PK" style="shape=partialRectangle;connectable=0;fillColor=none;top=0;left=0;bottom=0;right=0;fontStyle=1;overflow=hidden;whiteSpace=wrap;html=1;" parent="rhtYqysaW0aNV2xuzC4e-3" vertex="1">
          <mxGeometry width="30" height="20" as="geometry">
            <mxRectangle width="30" height="20" as="alternateBounds" />
          </mxGeometry>
        </mxCell>
        <mxCell id="rhtYqysaW0aNV2xuzC4e-5" value="ID&lt;span style=&quot;white-space: pre;&quot;&gt;&#x9;&lt;/span&gt;&lt;span style=&quot;white-space: pre;&quot;&gt;&#x9;&lt;/span&gt;&lt;span style=&quot;white-space: pre;&quot;&gt;&#x9;&lt;/span&gt;int" style="shape=partialRectangle;connectable=0;fillColor=none;top=0;left=0;bottom=0;right=0;align=left;spacingLeft=6;fontStyle=5;overflow=hidden;whiteSpace=wrap;html=1;" parent="rhtYqysaW0aNV2xuzC4e-3" vertex="1">
          <mxGeometry x="30" width="170" height="20" as="geometry">
            <mxRectangle width="170" height="20" as="alternateBounds" />
          </mxGeometry>
        </mxCell>
        <mxCell id="rhtYqysaW0aNV2xuzC4e-6" value="" style="shape=tableRow;horizontal=0;startSize=0;swimlaneHead=0;swimlaneBody=0;fillColor=none;collapsible=0;dropTarget=0;points=[[0,0.5],[1,0.5]];portConstraint=eastwest;top=0;left=0;right=0;bottom=0;" parent="rhtYqysaW0aNV2xuzC4e-2" vertex="1">
          <mxGeometry y="40" width="200" height="18" as="geometry" />
        </mxCell>
        <mxCell id="rhtYqysaW0aNV2xuzC4e-7" value="" style="shape=partialRectangle;connectable=0;fillColor=none;top=0;left=0;bottom=0;right=0;editable=1;overflow=hidden;whiteSpace=wrap;html=1;" parent="rhtYqysaW0aNV2xuzC4e-6" vertex="1">
          <mxGeometry width="30" height="18" as="geometry">
            <mxRectangle width="30" height="18" as="alternateBounds" />
          </mxGeometry>
        </mxCell>
        <mxCell id="rhtYqysaW0aNV2xuzC4e-8" value="username&lt;span style=&quot;white-space: pre;&quot;&gt;&#x9;&lt;/span&gt;varchar(50)" style="shape=partialRectangle;connectable=0;fillColor=none;top=0;left=0;bottom=0;right=0;align=left;spacingLeft=6;overflow=hidden;whiteSpace=wrap;html=1;" parent="rhtYqysaW0aNV2xuzC4e-6" vertex="1">
          <mxGeometry x="30" width="170" height="18" as="geometry">
            <mxRectangle width="170" height="18" as="alternateBounds" />
          </mxGeometry>
        </mxCell>
        <mxCell id="idK7WJY9950sKlHdf04e-4" value="" style="shape=tableRow;horizontal=0;startSize=0;swimlaneHead=0;swimlaneBody=0;fillColor=none;collapsible=0;dropTarget=0;points=[[0,0.5],[1,0.5]];portConstraint=eastwest;top=0;left=0;right=0;bottom=0;" parent="rhtYqysaW0aNV2xuzC4e-2" vertex="1">
          <mxGeometry y="58" width="200" height="18" as="geometry" />
        </mxCell>
        <mxCell id="idK7WJY9950sKlHdf04e-5" value="" style="shape=partialRectangle;connectable=0;fillColor=none;top=0;left=0;bottom=0;right=0;editable=1;overflow=hidden;whiteSpace=wrap;html=1;" parent="idK7WJY9950sKlHdf04e-4" vertex="1">
          <mxGeometry width="30" height="18" as="geometry">
            <mxRectangle width="30" height="18" as="alternateBounds" />
          </mxGeometry>
        </mxCell>
        <mxCell id="idK7WJY9950sKlHdf04e-6" value="password&lt;span style=&quot;white-space: pre;&quot;&gt;&#x9;&lt;span style=&quot;white-space: pre;&quot;&gt;&#x9;&lt;/span&gt;&lt;/span&gt;varchar(255)" style="shape=partialRectangle;connectable=0;fillColor=none;top=0;left=0;bottom=0;right=0;align=left;spacingLeft=6;overflow=hidden;whiteSpace=wrap;html=1;" parent="idK7WJY9950sKlHdf04e-4" vertex="1">
          <mxGeometry x="30" width="170" height="18" as="geometry">
            <mxRectangle width="170" height="18" as="alternateBounds" />
          </mxGeometry>
        </mxCell>
        <mxCell id="rhtYqysaW0aNV2xuzC4e-9" value="" style="shape=tableRow;horizontal=0;startSize=0;swimlaneHead=0;swimlaneBody=0;fillColor=none;collapsible=0;dropTarget=0;points=[[0,0.5],[1,0.5]];portConstraint=eastwest;top=0;left=0;right=0;bottom=0;" parent="rhtYqysaW0aNV2xuzC4e-2" vertex="1">
          <mxGeometry y="76" width="200" height="18" as="geometry" />
        </mxCell>
        <mxCell id="rhtYqysaW0aNV2xuzC4e-10" value="" style="shape=partialRectangle;connectable=0;fillColor=none;top=0;left=0;bottom=0;right=0;editable=1;overflow=hidden;whiteSpace=wrap;html=1;" parent="rhtYqysaW0aNV2xuzC4e-9" vertex="1">
          <mxGeometry width="30" height="18" as="geometry">
            <mxRectangle width="30" height="18" as="alternateBounds" />
          </mxGeometry>
        </mxCell>
        <mxCell id="rhtYqysaW0aNV2xuzC4e-11" value="name&lt;span style=&quot;white-space: pre;&quot;&gt;&#x9;&lt;/span&gt;&lt;span style=&quot;white-space: pre;&quot;&gt;&#x9;&lt;/span&gt;varchar(50)" style="shape=partialRectangle;connectable=0;fillColor=none;top=0;left=0;bottom=0;right=0;align=left;spacingLeft=6;overflow=hidden;whiteSpace=wrap;html=1;" parent="rhtYqysaW0aNV2xuzC4e-9" vertex="1">
          <mxGeometry x="30" width="170" height="18" as="geometry">
            <mxRectangle width="170" height="18" as="alternateBounds" />
          </mxGeometry>
        </mxCell>
        <mxCell id="rhtYqysaW0aNV2xuzC4e-12" value="" style="shape=tableRow;horizontal=0;startSize=0;swimlaneHead=0;swimlaneBody=0;fillColor=none;collapsible=0;dropTarget=0;points=[[0,0.5],[1,0.5]];portConstraint=eastwest;top=0;left=0;right=0;bottom=0;" parent="rhtYqysaW0aNV2xuzC4e-2" vertex="1">
          <mxGeometry y="94" width="200" height="18" as="geometry" />
        </mxCell>
        <mxCell id="rhtYqysaW0aNV2xuzC4e-13" value="" style="shape=partialRectangle;connectable=0;fillColor=none;top=0;left=0;bottom=0;right=0;editable=1;overflow=hidden;whiteSpace=wrap;html=1;" parent="rhtYqysaW0aNV2xuzC4e-12" vertex="1">
          <mxGeometry width="30" height="18" as="geometry">
            <mxRectangle width="30" height="18" as="alternateBounds" />
          </mxGeometry>
        </mxCell>
        <mxCell id="rhtYqysaW0aNV2xuzC4e-14" value="surname&lt;span style=&quot;white-space: pre;&quot;&gt;&#x9;&lt;/span&gt;&lt;span style=&quot;white-space: pre;&quot;&gt;&#x9;&lt;/span&gt;varchar(50)" style="shape=partialRectangle;connectable=0;fillColor=none;top=0;left=0;bottom=0;right=0;align=left;spacingLeft=6;overflow=hidden;whiteSpace=wrap;html=1;" parent="rhtYqysaW0aNV2xuzC4e-12" vertex="1">
          <mxGeometry x="30" width="170" height="18" as="geometry">
            <mxRectangle width="170" height="18" as="alternateBounds" />
          </mxGeometry>
        </mxCell>
        <mxCell id="rhtYqysaW0aNV2xuzC4e-18" value="" style="shape=tableRow;horizontal=0;startSize=0;swimlaneHead=0;swimlaneBody=0;fillColor=none;collapsible=0;dropTarget=0;points=[[0,0.5],[1,0.5]];portConstraint=eastwest;top=0;left=0;right=0;bottom=0;" parent="rhtYqysaW0aNV2xuzC4e-2" vertex="1">
          <mxGeometry y="112" width="200" height="18" as="geometry" />
        </mxCell>
        <mxCell id="rhtYqysaW0aNV2xuzC4e-19" value="" style="shape=partialRectangle;connectable=0;fillColor=none;top=0;left=0;bottom=0;right=0;editable=1;overflow=hidden;whiteSpace=wrap;html=1;" parent="rhtYqysaW0aNV2xuzC4e-18" vertex="1">
          <mxGeometry width="30" height="18" as="geometry">
            <mxRectangle width="30" height="18" as="alternateBounds" />
          </mxGeometry>
        </mxCell>
        <mxCell id="rhtYqysaW0aNV2xuzC4e-20" value="email&lt;span style=&quot;white-space: pre;&quot;&gt;&#x9;&lt;/span&gt;&lt;span style=&quot;white-space: pre;&quot;&gt;&#x9;&lt;/span&gt;varchar(50)" style="shape=partialRectangle;connectable=0;fillColor=none;top=0;left=0;bottom=0;right=0;align=left;spacingLeft=6;overflow=hidden;whiteSpace=wrap;html=1;" parent="rhtYqysaW0aNV2xuzC4e-18" vertex="1">
          <mxGeometry x="30" width="170" height="18" as="geometry">
            <mxRectangle width="170" height="18" as="alternateBounds" />
          </mxGeometry>
        </mxCell>
        <mxCell id="rhtYqysaW0aNV2xuzC4e-21" value="" style="shape=tableRow;horizontal=0;startSize=0;swimlaneHead=0;swimlaneBody=0;fillColor=none;collapsible=0;dropTarget=0;points=[[0,0.5],[1,0.5]];portConstraint=eastwest;top=0;left=0;right=0;bottom=0;" parent="rhtYqysaW0aNV2xuzC4e-2" vertex="1">
          <mxGeometry y="130" width="200" height="18" as="geometry" />
        </mxCell>
        <mxCell id="rhtYqysaW0aNV2xuzC4e-22" value="&lt;b&gt;FK&lt;/b&gt;" style="shape=partialRectangle;connectable=0;fillColor=none;top=0;left=0;bottom=0;right=0;editable=1;overflow=hidden;whiteSpace=wrap;html=1;" parent="rhtYqysaW0aNV2xuzC4e-21" vertex="1">
          <mxGeometry width="30" height="18" as="geometry">
            <mxRectangle width="30" height="18" as="alternateBounds" />
          </mxGeometry>
        </mxCell>
        <mxCell id="rhtYqysaW0aNV2xuzC4e-23" value="role_id&lt;span style=&quot;white-space: pre;&quot;&gt;&#x9;&lt;/span&gt;&lt;span style=&quot;white-space: pre;&quot;&gt;&#x9;&lt;/span&gt;int" style="shape=partialRectangle;connectable=0;fillColor=none;top=0;left=0;bottom=0;right=0;align=left;spacingLeft=6;overflow=hidden;whiteSpace=wrap;html=1;" parent="rhtYqysaW0aNV2xuzC4e-21" vertex="1">
          <mxGeometry x="30" width="170" height="18" as="geometry">
            <mxRectangle width="170" height="18" as="alternateBounds" />
          </mxGeometry>
        </mxCell>
        <mxCell id="pV-Evp07mmvemtxAsMJC-10" style="edgeStyle=orthogonalEdgeStyle;rounded=0;orthogonalLoop=1;jettySize=auto;html=1;exitX=1;exitY=0.5;exitDx=0;exitDy=0;" parent="rhtYqysaW0aNV2xuzC4e-2" source="rhtYqysaW0aNV2xuzC4e-21" target="rhtYqysaW0aNV2xuzC4e-21" edge="1">
          <mxGeometry relative="1" as="geometry" />
        </mxCell>
        <mxCell id="BQ9yxjVHY6jUqZ1yo06z-11" value="" style="edgeStyle=orthogonalEdgeStyle;fontSize=12;html=1;endArrow=ERmandOne;startArrow=ERmandOne;rounded=0;exitX=1;exitY=0.5;exitDx=0;exitDy=0;entryX=0;entryY=0.5;entryDx=0;entryDy=0;" parent="1" source="rhtYqysaW0aNV2xuzC4e-57" target="iL8kvciCAE8nfBlT4CIH-18" edge="1">
          <mxGeometry width="100" height="100" relative="1" as="geometry">
            <mxPoint x="968" y="-1010" as="sourcePoint" />
            <mxPoint x="1068" y="-1110" as="targetPoint" />
          </mxGeometry>
        </mxCell>
        <mxCell id="BQ9yxjVHY6jUqZ1yo06z-12" value="" style="edgeStyle=orthogonalEdgeStyle;fontSize=12;html=1;endArrow=ERmandOne;startArrow=ERmandOne;rounded=0;exitX=1;exitY=0.5;exitDx=0;exitDy=0;" parent="1" source="rhtYqysaW0aNV2xuzC4e-57" target="iL8kvciCAE8nfBlT4CIH-52" edge="1">
          <mxGeometry width="100" height="100" relative="1" as="geometry">
            <mxPoint x="927" y="-841" as="sourcePoint" />
            <mxPoint x="1027" y="-941" as="targetPoint" />
          </mxGeometry>
        </mxCell>
        <mxCell id="BQ9yxjVHY6jUqZ1yo06z-13" value="" style="edgeStyle=orthogonalEdgeStyle;fontSize=12;html=1;endArrow=ERmandOne;startArrow=ERmandOne;rounded=0;exitX=1;exitY=0.5;exitDx=0;exitDy=0;" parent="1" source="rhtYqysaW0aNV2xuzC4e-57" target="iL8kvciCAE8nfBlT4CIH-92" edge="1">
          <mxGeometry width="100" height="100" relative="1" as="geometry">
            <mxPoint x="913" y="-767" as="sourcePoint" />
            <mxPoint x="1013" y="-867" as="targetPoint" />
          </mxGeometry>
        </mxCell>
        <mxCell id="BQ9yxjVHY6jUqZ1yo06z-17" value="participation" style="shape=table;startSize=20;container=1;collapsible=0;childLayout=tableLayout;fixedRows=1;rowLines=0;fontStyle=1;align=center;resizeLast=1;html=1;" parent="1" vertex="1">
          <mxGeometry x="494" y="-1106" width="200" height="103" as="geometry" />
        </mxCell>
        <mxCell id="BQ9yxjVHY6jUqZ1yo06z-18" value="" style="shape=tableRow;horizontal=0;startSize=0;swimlaneHead=0;swimlaneBody=0;fillColor=none;collapsible=0;dropTarget=0;points=[[0,0.5],[1,0.5]];portConstraint=eastwest;top=0;left=0;right=0;bottom=1;" parent="BQ9yxjVHY6jUqZ1yo06z-17" vertex="1">
          <mxGeometry y="20" width="200" height="20" as="geometry" />
        </mxCell>
        <mxCell id="BQ9yxjVHY6jUqZ1yo06z-19" value="PK" style="shape=partialRectangle;connectable=0;fillColor=none;top=0;left=0;bottom=0;right=0;fontStyle=1;overflow=hidden;whiteSpace=wrap;html=1;" parent="BQ9yxjVHY6jUqZ1yo06z-18" vertex="1">
          <mxGeometry width="30" height="20" as="geometry">
            <mxRectangle width="30" height="20" as="alternateBounds" />
          </mxGeometry>
        </mxCell>
        <mxCell id="BQ9yxjVHY6jUqZ1yo06z-20" value="ID&lt;span style=&quot;white-space: pre;&quot;&gt;&#x9;&lt;/span&gt;&lt;span style=&quot;white-space: pre;&quot;&gt;&#x9;&lt;/span&gt;&lt;span style=&quot;white-space: pre;&quot;&gt;&#x9;&lt;span style=&quot;white-space: pre;&quot;&gt;&#x9;&lt;/span&gt;&lt;/span&gt;int" style="shape=partialRectangle;connectable=0;fillColor=none;top=0;left=0;bottom=0;right=0;align=left;spacingLeft=2;fontStyle=5;overflow=hidden;whiteSpace=wrap;html=1;" parent="BQ9yxjVHY6jUqZ1yo06z-18" vertex="1">
          <mxGeometry x="30" width="170" height="20" as="geometry">
            <mxRectangle width="170" height="20" as="alternateBounds" />
          </mxGeometry>
        </mxCell>
        <mxCell id="BQ9yxjVHY6jUqZ1yo06z-24" value="" style="shape=tableRow;horizontal=0;startSize=0;swimlaneHead=0;swimlaneBody=0;fillColor=none;collapsible=0;dropTarget=0;points=[[0,0.5],[1,0.5]];portConstraint=eastwest;top=0;left=0;right=0;bottom=0;" parent="BQ9yxjVHY6jUqZ1yo06z-17" vertex="1">
          <mxGeometry y="40" width="200" height="18" as="geometry" />
        </mxCell>
        <mxCell id="BQ9yxjVHY6jUqZ1yo06z-25" value="&lt;b&gt;FK&lt;/b&gt;" style="shape=partialRectangle;connectable=0;fillColor=none;top=0;left=0;bottom=0;right=0;editable=1;overflow=hidden;whiteSpace=wrap;html=1;" parent="BQ9yxjVHY6jUqZ1yo06z-24" vertex="1">
          <mxGeometry width="30" height="18" as="geometry">
            <mxRectangle width="30" height="18" as="alternateBounds" />
          </mxGeometry>
        </mxCell>
        <mxCell id="BQ9yxjVHY6jUqZ1yo06z-26" value="device_id&lt;span style=&quot;white-space: pre;&quot;&gt;&#x9;&lt;span style=&quot;white-space: pre;&quot;&gt;&#x9;&lt;span style=&quot;white-space: pre;&quot;&gt;&#x9;&lt;/span&gt;&lt;/span&gt;&lt;/span&gt;int" style="shape=partialRectangle;connectable=0;fillColor=none;top=0;left=0;bottom=0;right=0;align=left;spacingLeft=2;overflow=hidden;whiteSpace=wrap;html=1;" parent="BQ9yxjVHY6jUqZ1yo06z-24" vertex="1">
          <mxGeometry x="30" width="170" height="18" as="geometry">
            <mxRectangle width="170" height="18" as="alternateBounds" />
          </mxGeometry>
        </mxCell>
        <mxCell id="BQ9yxjVHY6jUqZ1yo06z-21" value="" style="shape=tableRow;horizontal=0;startSize=0;swimlaneHead=0;swimlaneBody=0;fillColor=none;collapsible=0;dropTarget=0;points=[[0,0.5],[1,0.5]];portConstraint=eastwest;top=0;left=0;right=0;bottom=0;" parent="BQ9yxjVHY6jUqZ1yo06z-17" vertex="1">
          <mxGeometry y="58" width="200" height="20" as="geometry" />
        </mxCell>
        <mxCell id="BQ9yxjVHY6jUqZ1yo06z-22" value="&lt;b&gt;FK&lt;/b&gt;" style="shape=partialRectangle;connectable=0;fillColor=none;top=0;left=0;bottom=0;right=0;editable=1;overflow=hidden;whiteSpace=wrap;html=1;" parent="BQ9yxjVHY6jUqZ1yo06z-21" vertex="1">
          <mxGeometry width="30" height="20" as="geometry">
            <mxRectangle width="30" height="20" as="alternateBounds" />
          </mxGeometry>
        </mxCell>
        <mxCell id="BQ9yxjVHY6jUqZ1yo06z-23" value="user_id&lt;span style=&quot;white-space: pre;&quot;&gt;&#x9;&lt;/span&gt;&lt;span style=&quot;white-space: pre;&quot;&gt;&#x9;&lt;span style=&quot;white-space: pre;&quot;&gt;&#x9;&lt;/span&gt;&lt;/span&gt;int" style="shape=partialRectangle;connectable=0;fillColor=none;top=0;left=0;bottom=0;right=0;align=left;spacingLeft=2;overflow=hidden;whiteSpace=wrap;html=1;" parent="BQ9yxjVHY6jUqZ1yo06z-21" vertex="1">
          <mxGeometry x="30" width="170" height="20" as="geometry">
            <mxRectangle width="170" height="20" as="alternateBounds" />
          </mxGeometry>
        </mxCell>
        <mxCell id="BQ9yxjVHY6jUqZ1yo06z-27" value="" style="shape=tableRow;horizontal=0;startSize=0;swimlaneHead=0;swimlaneBody=0;fillColor=none;collapsible=0;dropTarget=0;points=[[0,0.5],[1,0.5]];portConstraint=eastwest;top=0;left=0;right=0;bottom=0;" parent="BQ9yxjVHY6jUqZ1yo06z-17" vertex="1">
          <mxGeometry y="78" width="200" height="18" as="geometry" />
        </mxCell>
        <mxCell id="BQ9yxjVHY6jUqZ1yo06z-28" value="" style="shape=partialRectangle;connectable=0;fillColor=none;top=0;left=0;bottom=0;right=0;editable=1;overflow=hidden;whiteSpace=wrap;html=1;" parent="BQ9yxjVHY6jUqZ1yo06z-27" vertex="1">
          <mxGeometry width="30" height="18" as="geometry">
            <mxRectangle width="30" height="18" as="alternateBounds" />
          </mxGeometry>
        </mxCell>
        <mxCell id="BQ9yxjVHY6jUqZ1yo06z-29" value="is_winner&lt;span style=&quot;white-space: pre;&quot;&gt;&#x9;&lt;span style=&quot;white-space: pre;&quot;&gt;&#x9;&lt;span style=&quot;white-space: pre;&quot;&gt;&#x9;&lt;/span&gt;&lt;/span&gt;&lt;/span&gt;bit" style="shape=partialRectangle;connectable=0;fillColor=none;top=0;left=0;bottom=0;right=0;align=left;spacingLeft=2;overflow=hidden;whiteSpace=wrap;html=1;" parent="BQ9yxjVHY6jUqZ1yo06z-27" vertex="1">
          <mxGeometry x="30" width="170" height="18" as="geometry">
            <mxRectangle width="170" height="18" as="alternateBounds" />
          </mxGeometry>
        </mxCell>
        <mxCell id="BQ9yxjVHY6jUqZ1yo06z-33" value="" style="fontSize=12;html=1;endArrow=ERoneToMany;rounded=0;entryX=0;entryY=0.5;entryDx=0;entryDy=0;exitX=0;exitY=0.5;exitDx=0;exitDy=0;edgeStyle=orthogonalEdgeStyle;" parent="1" source="BQ9yxjVHY6jUqZ1yo06z-21" target="rhtYqysaW0aNV2xuzC4e-3" edge="1">
          <mxGeometry width="100" height="100" relative="1" as="geometry">
            <mxPoint x="307" y="-511" as="sourcePoint" />
            <mxPoint x="407" y="-611" as="targetPoint" />
            <Array as="points">
              <mxPoint x="463" y="-1038" />
              <mxPoint x="463" y="-931" />
            </Array>
          </mxGeometry>
        </mxCell>
        <mxCell id="BQ9yxjVHY6jUqZ1yo06z-34" value="" style="fontSize=12;html=1;endArrow=ERoneToMany;rounded=0;exitX=0;exitY=0.5;exitDx=0;exitDy=0;entryX=0;entryY=0.5;entryDx=0;entryDy=0;edgeStyle=orthogonalEdgeStyle;" parent="1" source="BQ9yxjVHY6jUqZ1yo06z-24" target="rhtYqysaW0aNV2xuzC4e-57" edge="1">
          <mxGeometry width="100" height="100" relative="1" as="geometry">
            <mxPoint x="381" y="-819" as="sourcePoint" />
            <mxPoint x="356" y="-652" as="targetPoint" />
            <Array as="points">
              <mxPoint x="465" y="-1057" />
              <mxPoint x="465" y="-1204" />
            </Array>
          </mxGeometry>
        </mxCell>
        <mxCell id="BQ9yxjVHY6jUqZ1yo06z-35" value="" style="fontSize=12;html=1;endArrow=ERoneToMany;startArrow=ERmandOne;rounded=0;exitX=0;exitY=0.5;exitDx=0;exitDy=0;endFill=0;edgeStyle=orthogonalEdgeStyle;entryX=0;entryY=0.5;entryDx=0;entryDy=0;" parent="1" source="pV-Evp07mmvemtxAsMJC-12" target="pV-Evp07mmvemtxAsMJC-1" edge="1">
          <mxGeometry width="100" height="100" relative="1" as="geometry">
            <mxPoint x="733" y="-714" as="sourcePoint" />
            <mxPoint x="833" y="-814" as="targetPoint" />
            <Array as="points">
              <mxPoint x="714" y="-969" />
              <mxPoint x="714" y="-1077" />
            </Array>
          </mxGeometry>
        </mxCell>
        <mxCell id="BQ9yxjVHY6jUqZ1yo06z-40" value="" style="fontSize=12;html=1;endArrow=ERoneToMany;startArrow=ERzeroToOne;rounded=0;entryX=0;entryY=0.5;entryDx=0;entryDy=0;exitX=0;exitY=0.5;exitDx=0;exitDy=0;edgeStyle=orthogonalEdgeStyle;" parent="1" source="rhtYqysaW0aNV2xuzC4e-153" target="iL8kvciCAE8nfBlT4CIH-128" edge="1">
          <mxGeometry width="100" height="100" relative="1" as="geometry">
            <mxPoint x="1019" y="-803" as="sourcePoint" />
            <mxPoint x="1281" y="-822" as="targetPoint" />
            <Array as="points">
              <mxPoint x="995" y="-785" />
              <mxPoint x="995" y="-839" />
            </Array>
          </mxGeometry>
        </mxCell>
        <mxCell id="BQ9yxjVHY6jUqZ1yo06z-41" value="" style="fontSize=12;html=1;endArrow=ERoneToMany;startArrow=ERzeroToOne;rounded=0;entryX=0;entryY=0.5;entryDx=0;entryDy=0;exitX=1;exitY=0.5;exitDx=0;exitDy=0;edgeStyle=orthogonalEdgeStyle;" parent="1" source="rhtYqysaW0aNV2xuzC4e-143" target="iL8kvciCAE8nfBlT4CIH-125" edge="1">
          <mxGeometry width="100" height="100" relative="1" as="geometry">
            <mxPoint x="1292" y="-1080.5" as="sourcePoint" />
            <mxPoint x="1251" y="-860.5" as="targetPoint" />
            <Array as="points">
              <mxPoint x="979" y="-783" />
              <mxPoint x="979" y="-857" />
            </Array>
          </mxGeometry>
        </mxCell>
        <mxCell id="BQ9yxjVHY6jUqZ1yo06z-42" value="" style="fontSize=12;html=1;endArrow=ERoneToMany;startArrow=ERzeroToOne;rounded=0;entryX=0;entryY=0.5;entryDx=0;entryDy=0;exitX=1;exitY=0.5;exitDx=0;exitDy=0;edgeStyle=orthogonalEdgeStyle;" parent="1" source="rhtYqysaW0aNV2xuzC4e-130" target="iL8kvciCAE8nfBlT4CIH-122" edge="1">
          <mxGeometry width="100" height="100" relative="1" as="geometry">
            <mxPoint x="1307" y="-881" as="sourcePoint" />
            <mxPoint x="1272" y="-847" as="targetPoint" />
          </mxGeometry>
        </mxCell>
        <mxCell id="BQ9yxjVHY6jUqZ1yo06z-46" value="" style="fontSize=12;html=1;endArrow=ERoneToMany;startArrow=ERmandOne;rounded=0;entryX=1;entryY=0.5;entryDx=0;entryDy=0;exitX=1;exitY=0.5;exitDx=0;exitDy=0;edgeStyle=orthogonalEdgeStyle;" parent="1" source="rhtYqysaW0aNV2xuzC4e-25" target="rhtYqysaW0aNV2xuzC4e-21" edge="1">
          <mxGeometry width="100" height="100" relative="1" as="geometry">
            <mxPoint x="622" y="-631" as="sourcePoint" />
            <mxPoint x="722" y="-731" as="targetPoint" />
            <Array as="points">
              <mxPoint x="703" y="-766" />
              <mxPoint x="703" y="-822" />
            </Array>
          </mxGeometry>
        </mxCell>
      </root>
    </mxGraphModel>
  </diagram>
</mxfile>
